<svg xmlns="http://www.w3.org/2000/svg"  viewBox="0 0 100 100" width="250px" height="250px"><circle cx="78" cy="14" r="1" fill="#f1bc19"/><circle cx="50" cy="50" r="38" fill="#f9dbd2"/><circle cx="84" cy="16" r="4" fill="#f1bc19"/><circle cx="14" cy="26" r="2" fill="#ee3e54"/><circle cx="78" cy="77" r="2" fill="#fbcd59"/><circle cx="17" cy="78" r="4" fill="#fbcd59"/><circle cx="24" cy="83" r="2" fill="#ee3e54"/><circle cx="66.483" cy="78.517" r="2.483" fill="#fff"/><circle cx="16" cy="48" r="1" fill="#fff"/><circle cx="86" cy="31" r="1" fill="#f1bc19"/><circle cx="80" cy="66" r="2" fill="#fff"/><path fill="#fdf5a9" d="M32.5,44c0,0-3,0.196-3-3s2.739-3.076,4.5-3.5c-1.891-0.489-4.272-1.293-4.272-3.967 s1.834-5.28,5.519-5.933c3.685-0.652,5.764,1.943,6.253,3.9c0-3.424,5.065-10,12.924-10s12.12,5,12.12,9.946 c0,3.489-2.334,6.223-3.043,7.054c2.421-0.758,5,1.628,5,4s-1.712,3.717-3,4c0.734,0.299,2.483,0.989,2.483,2.888 c0,0-35.983,6.612-37.538-1.165c-0.288-1.44-0.163-2.723,0.489-2.494C31.111,45.79,32.5,44,32.5,44z"/><path fill="#fdfcef" d="M30.935,45.728c0.75,0,1.103,2.757,1.174,3.272c-0.098-1.576-0.016-2.745,0.538-2.571 s0.995,1.902,0.995,2.687c-0.065-1.367,0.043-2.276,0.646-2.08c0.57,0.185,0.984,2.051,0.984,2.735c0,0-0.196-2.367,0.554-2.172 s1.141,3.034,1.141,3.034s-0.424-2.787,0.457-2.412c0.88,0.375,1.076,3.017,1.076,3.017s-0.196-2.563,0.652-2.439 c0.848,0.124,0.946,2.08,0.946,2.83c0,0,0.015-2.421,0.602-2.237c0.587,0.183,0.88,1.647,0.88,2.727l0.906,24.533l-8.658-6.629 L30.935,45.728z"/><path fill="#d6213f" d="M41.174,75.348l1.207,0.946l-0.849-24.296c0,0,0.074-2.154-0.855-2.498 c-0.44-0.136-0.557,1.203-0.557,2.51S41.174,75.348,41.174,75.348z"/><path fill="#d6213f" d="M38.919,73.912l1.2,1.114l-1.638-23.989c0,0-0.181-2.461-1.111-2.805 c-0.668-0.009-0.403,1.228-0.403,2.534S38.919,73.912,38.919,73.912z"/><path fill="#d6213f" d="M36.365,72.065l1.32,1.066l-2.408-23.206c0,0-0.181-2.461-1.111-2.805 c-0.668-0.009-0.403,1.228-0.403,2.534C33.764,50.96,36.365,72.065,36.365,72.065z"/><path fill="#d6213f" d="M33.712,70.247l1.438,0.94l-3.126-22.534c0,0-0.181-2.461-1.111-2.805 c-0.668-0.009-0.403,1.228-0.403,2.534S33.712,70.247,33.712,70.247z"/><path fill="#d6213f" d="M48.5,46.5L48.5,46.5c-2.209,0-4-1.791-4-4v-1c0-0.552,0.448-1,1-1h6c0.552,0,1,0.448,1,1v1 C52.5,44.709,50.709,46.5,48.5,46.5z"/><circle cx="57" cy="38" r="2.5" fill="#3b3634"/><circle cx="40" cy="38" r="2.5" fill="#3b3634"/><circle cx="41" cy="37" r="1" fill="#fdfcef"/><circle cx="58" cy="37" r="1" fill="#fdfcef"/><path fill="#fdfcef" d="M45.524,51.448c-0.013-1.079-0.892-1.948-1.972-1.948c-1.12,0-2.015,0.932-1.97,2.051L42.5,76.5 l3.3-0.5L45.524,51.448z"/><path fill="#fdfcef" d="M50.652,49.128L50.652,49.128c-1.014,0.116-1.779,0.977-1.773,1.998L49,75.666l3.228-0.552 c0,0,0.337-23.682,0.342-24.255C52.58,49.822,51.681,49.011,50.652,49.128z"/><path fill="#fdfcef" d="M58.762,48.224c-1.243,0.046-2.246,1.034-2.309,2.276l-1.127,24.163l3.269-0.229l1.804-24.483 C60.485,48.999,59.717,48.189,58.762,48.224z"/><path fill="#d6213f" d="M47.1,49.396c-0.914,0.058-1.618,0.829-1.592,1.745L45.8,76l3.2-0.334l-0.115-24.58 C48.893,50.111,48.073,49.335,47.1,49.396z"/><path fill="#d6213f" d="M54.876,48.671c-1.276,0.047-2.292,1.085-2.312,2.362l-0.336,24.08l3.098-0.45l1.151-24.339 C56.54,49.407,55.795,48.637,54.876,48.671z"/><path fill="#d6213f" d="M62.667,48c-1.199,0-2.197,0.922-2.293,2.117l-1.779,24.317l3.193-0.41l2.336-24.406 C64.215,48.753,63.537,48,62.667,48z"/><path fill="#fdfcef" d="M61.788,74.024l2.313-24.188c0.127-1.223,1.158-2.151,2.387-2.151l0,0 c0.91,0,1.613,0.801,1.494,1.703L65.09,73.473"/><path fill="#472b29" d="M42.5,76.75c-0.134,0-0.245-0.106-0.25-0.241L41.332,51.56c-0.024-0.609,0.195-1.188,0.618-1.627 c0.423-0.44,0.991-0.683,1.602-0.683c1.211,0,2.207,0.984,2.222,2.195l0.276,24.552c0.002,0.138-0.109,0.251-0.247,0.253 c-0.001,0-0.002,0-0.003,0c-0.137,0-0.248-0.11-0.25-0.247l-0.276-24.552c-0.011-0.938-0.783-1.701-1.722-1.701 c-0.473,0-0.913,0.188-1.241,0.529c-0.328,0.341-0.498,0.79-0.479,1.262l0.918,24.95c0.005,0.138-0.103,0.254-0.241,0.259 C42.506,76.75,42.503,76.75,42.5,76.75z"/><path fill="#472b29" d="M61.788,74.274c-0.008,0-0.016,0-0.023-0.001c-0.138-0.013-0.238-0.135-0.226-0.273l2.313-24.188 c0.142-1.356,1.275-2.377,2.637-2.377c0.506,0,0.987,0.218,1.32,0.598c0.334,0.38,0.487,0.886,0.422,1.387l-2.894,24.083 c-0.016,0.137-0.132,0.239-0.278,0.218c-0.137-0.016-0.234-0.141-0.218-0.278l2.894-24.085c0.047-0.362-0.063-0.724-0.302-0.996 c-0.238-0.272-0.583-0.428-0.944-0.428c-1.104,0-2.024,0.829-2.139,1.927l-2.313,24.186C62.024,74.177,61.916,74.274,61.788,74.274 z"/><path fill="#472b29" d="M58.595,74.684c-0.006,0-0.012,0-0.019,0c-0.138-0.01-0.241-0.13-0.23-0.268l1.78-24.316 c0.104-1.318,1.221-2.349,2.541-2.349c0.485,0,0.95,0.207,1.274,0.567c0.325,0.36,0.482,0.844,0.433,1.326l-0.064,0.611 c-0.015,0.138-0.142,0.239-0.275,0.222c-0.137-0.015-0.236-0.138-0.223-0.275l0.064-0.611c0.036-0.341-0.076-0.684-0.306-0.939 c-0.23-0.255-0.56-0.401-0.903-0.401c-1.062,0-1.959,0.829-2.043,1.887l-1.78,24.315C58.834,74.583,58.725,74.684,58.595,74.684z"/><path fill="#472b29" d="M55.326,74.913c-0.004,0-0.008,0-0.012,0c-0.138-0.006-0.244-0.123-0.238-0.261l1.127-24.163 c0.071-1.383,1.167-2.463,2.551-2.515c0.519-0.019,1.036,0.189,1.398,0.571c0.362,0.383,0.544,0.903,0.496,1.428l-0.094,1.029 c-0.013,0.136-0.123,0.235-0.271,0.227c-0.138-0.013-0.239-0.134-0.227-0.271l0.094-1.029c0.034-0.382-0.097-0.761-0.361-1.039 c-0.264-0.278-0.632-0.441-1.018-0.416c-1.122,0.042-2.012,0.918-2.068,2.039l-1.127,24.162 C55.569,74.809,55.459,74.913,55.326,74.913z"/><path fill="#472b29" d="M52.229,75.363c-0.001,0-0.002,0-0.004,0c-0.138-0.002-0.248-0.115-0.246-0.253l0.336-24.081 c0.021-1.411,1.143-2.557,2.553-2.608c0.483-0.01,1.003,0.18,1.357,0.546c0.354,0.365,0.536,0.866,0.501,1.374l-0.076,1.111 c-0.009,0.138-0.128,0.243-0.267,0.232c-0.138-0.01-0.241-0.129-0.231-0.267l0.076-1.111c0.025-0.367-0.107-0.728-0.362-0.992 s-0.588-0.419-0.98-0.394c-1.144,0.042-2.053,0.971-2.07,2.116l-0.336,24.08C52.477,75.253,52.365,75.363,52.229,75.363z"/><path fill="#472b29" d="M49,75.916c-0.138,0-0.249-0.111-0.25-0.249l-0.121-24.54c-0.006-1.151,0.853-2.118,1.995-2.248 c0.561-0.064,1.124,0.116,1.543,0.495c0.421,0.379,0.658,0.92,0.653,1.486l-0.01,1.05c-0.001,0.137-0.113,0.248-0.25,0.248 c-0.001,0-0.002,0-0.003,0c-0.138-0.001-0.248-0.114-0.247-0.252l0.01-1.049c0.004-0.423-0.174-0.828-0.487-1.11 c-0.313-0.282-0.729-0.419-1.152-0.369c-0.889,0.101-1.556,0.853-1.552,1.749l0.121,24.539C49.251,75.802,49.14,75.915,49,75.916 L49,75.916z"/><path fill="#472b29" d="M48.879,52.125c-0.001,0-0.001,0-0.002,0c-0.139-0.001-0.249-0.114-0.248-0.252l0.007-0.79 c0.003-0.401-0.155-0.774-0.447-1.05c-0.291-0.275-0.678-0.41-1.072-0.388c-0.784,0.049-1.38,0.703-1.357,1.488l0.021,0.735 c0.004,0.138-0.105,0.253-0.243,0.257c-0.122,0.014-0.253-0.105-0.257-0.243l-0.021-0.734c-0.03-1.056,0.771-1.935,1.826-2.001 c0.527-0.036,1.061,0.158,1.447,0.524c0.388,0.367,0.607,0.883,0.604,1.417l-0.007,0.79C49.128,52.015,49.016,52.125,48.879,52.125 z"/><path fill="#472b29" d="M48.5,46.75c-2.344,0-4.25-1.907-4.25-4.25v-1c0-0.689,0.561-1.25,1.25-1.25h6 c0.689,0,1.25,0.561,1.25,1.25v1C52.75,44.843,50.844,46.75,48.5,46.75z M45.5,40.75c-0.413,0-0.75,0.336-0.75,0.75v1 c0,2.068,1.683,3.75,3.75,3.75s3.75-1.682,3.75-3.75v-1c0-0.414-0.337-0.75-0.75-0.75H45.5z"/><path fill="#472b29" d="M57,40.75c-1.517,0-2.75-1.233-2.75-2.75s1.233-2.75,2.75-2.75s2.75,1.233,2.75,2.75 S58.517,40.75,57,40.75z M57,35.75c-1.24,0-2.25,1.009-2.25,2.25s1.01,2.25,2.25,2.25s2.25-1.009,2.25-2.25S58.24,35.75,57,35.75z"/><path fill="#472b29" d="M40,40.75c-1.517,0-2.75-1.233-2.75-2.75s1.233-2.75,2.75-2.75s2.75,1.233,2.75,2.75 S41.517,40.75,40,40.75z M40,35.75c-1.24,0-2.25,1.009-2.25,2.25s1.01,2.25,2.25,2.25s2.25-1.009,2.25-2.25S41.24,35.75,40,35.75z"/><path fill="#472b29" d="M35.15,71.437c-0.123,0-0.23-0.091-0.248-0.216L31.86,49.034c-0.019-0.137,0.077-0.263,0.214-0.282 c0.146-0.014,0.264,0.078,0.282,0.213l3.042,22.187c0.019,0.137-0.077,0.263-0.214,0.282C35.173,71.436,35.161,71.437,35.15,71.437 z"/><path fill="#472b29" d="M36.365,72.315c-0.125,0-0.233-0.093-0.248-0.221l-2.724-22.948 c-0.017-0.137,0.081-0.261,0.219-0.277c0.131-0.021,0.262,0.081,0.277,0.219l2.724,22.948c0.017,0.137-0.081,0.261-0.219,0.277 C36.385,72.314,36.375,72.315,36.365,72.315z"/><path fill="#472b29" d="M37.685,73.269c-0.127,0-0.235-0.096-0.249-0.224l-2.413-23.247 c-0.014-0.137,0.086-0.26,0.224-0.274c0.14-0.008,0.26,0.085,0.274,0.223l2.413,23.247c0.014,0.137-0.086,0.26-0.224,0.274 C37.701,73.269,37.693,73.269,37.685,73.269z"/><path fill="#472b29" d="M38.92,74.162c-0.129,0-0.238-0.099-0.249-0.229l-1.952-23.277c-0.012-0.138,0.091-0.259,0.229-0.27 c0.136-0.011,0.258,0.091,0.27,0.228l1.952,23.277c0.012,0.138-0.091,0.259-0.229,0.27C38.934,74.161,38.927,74.162,38.92,74.162z"/><path fill="#472b29" d="M40.213,75.097c-0.13,0-0.24-0.101-0.249-0.232l-1.713-23.607C38.24,51.12,38.344,51,38.481,50.99 c0.15-0.012,0.259,0.094,0.268,0.231l1.713,23.607c0.011,0.138-0.093,0.257-0.23,0.268C40.225,75.097,40.219,75.097,40.213,75.097z"/><path fill="#472b29" d="M41.346,75.916c-0.133,0-0.243-0.104-0.25-0.237l-1.248-24.035c-0.007-0.138,0.1-0.256,0.237-0.263 c0.134-0.01,0.256,0.099,0.263,0.236l1.248,24.035c0.007,0.138-0.1,0.256-0.237,0.263C41.354,75.916,41.35,75.916,41.346,75.916z"/><path fill="#472b29" d="M41.58,52.37c-0.138,0-0.25-0.112-0.25-0.25c0-1.187-0.336-2.373-0.704-2.488 c-0.121,0.11-0.271,1.048-0.278,2c-0.001,0.138-0.112,0.249-0.25,0.249h-0.001c-0.138,0-0.249-0.112-0.249-0.25 c0-1.192-0.229-2.51-0.731-2.583c-0.04-0.008-0.065,0.002-0.097,0.031c-0.277,0.259-0.325,1.395-0.271,2.127 c0.001,0.005,0.001,0.01,0.001,0.015c0.011,0.138-0.093,0.257-0.23,0.268c-0.135,0.01-0.258-0.093-0.268-0.23v0l0,0v0 c-0.001-0.003-0.001-0.007-0.001-0.011c-0.078-1.034-0.416-2.578-0.924-2.794c-0.209,0.072-0.273,0.955-0.132,1.999 c0.008,0.055,0.015,0.105,0.021,0.148c0.019,0.136-0.076,0.262-0.212,0.282c-0.146,0.017-0.263-0.075-0.283-0.21 c-0.006-0.04-0.013-0.087-0.021-0.141c-0.188-1.254-0.598-2.601-0.938-2.689c-0.216,0.156-0.291,0.94-0.258,1.666 c0.011,0.108,0.017,0.199,0.017,0.264c0,0.134-0.105,0.244-0.239,0.25c-0.152-0.002-0.249-0.096-0.26-0.229 c-0.007-0.081-0.015-0.196-0.021-0.334c-0.091-0.81-0.473-2.081-0.792-2.184c-0.084-0.027-0.11-0.008-0.122,0 c-0.098,0.074-0.249,0.388-0.205,1.633c0.006,0.077,0.009,0.147,0.009,0.209c0,0.136-0.108,0.247-0.244,0.25 c-0.12,0-0.249-0.103-0.256-0.238c-0.003-0.077-0.007-0.151-0.009-0.224c-0.066-0.84-0.486-2.135-0.812-2.237l0,0 c-0.046,0-0.348,0.144-0.213,2.316c0.008,0.134-0.092,0.251-0.226,0.264c-0.139,0.012-0.254-0.082-0.272-0.214 c-0.413-3.022-0.921-3.056-0.926-3.056c-0.138,0-0.25-0.112-0.25-0.25s0.112-0.25,0.25-0.25c0.409,0,0.734,0.417,0.999,1.313 c0.076-0.295,0.184-0.434,0.293-0.519c0.138-0.111,0.314-0.138,0.495-0.081c0.337,0.105,0.606,0.548,0.801,1.073 c0.064-0.176,0.151-0.302,0.262-0.386c0.113-0.085,0.307-0.166,0.58-0.079c0.337,0.109,0.596,0.561,0.782,1.087 c0.061-0.179,0.144-0.327,0.256-0.422c0.138-0.114,0.31-0.153,0.487-0.105c0.352,0.091,0.624,0.546,0.828,1.097 c0.055-0.179,0.134-0.324,0.247-0.412c0.089-0.07,0.277-0.169,0.557-0.051c0.402,0.171,0.677,0.687,0.862,1.259 c0.067-0.224,0.163-0.415,0.295-0.539c0.143-0.133,0.317-0.188,0.51-0.161c0.472,0.069,0.756,0.509,0.924,1.068 c0.068-0.178,0.155-0.32,0.263-0.399c0.118-0.086,0.261-0.11,0.399-0.067c0.774,0.242,1.056,1.906,1.056,2.965 C41.83,52.258,41.718,52.37,41.58,52.37z"/><path fill="#472b29" d="M42.553,76.992c-0.146,0-0.29-0.046-0.41-0.133l-8.499-6.144c-0.151-0.109-0.253-0.275-0.281-0.46 l-0.414-2.665c-0.878-5.657-2.82-18.17-2.997-19.289c-0.224-1.431-0.15-2.375,0.219-2.807c0.149-0.174,0.348-0.276,0.565-0.291 l0.852-0.939c-1.196-0.455-2.574-1.526-2.587-3.56c-0.01-1.618,1.048-2.804,2.913-3.363c-1.348-0.604-2.685-1.687-2.685-3.808 c0-2.48,1.554-5.65,5.932-6.425c0.414-0.073,0.824-0.11,1.218-0.11c2.316,0,4.008,1.269,4.935,2.791 C42.551,26.07,47.396,21,54.424,21c8.285,0,12.62,5.255,12.62,10.446c0,2.796-1.383,5.083-2.386,6.417 C66.92,37.998,69,40.188,69,42.5c0,2.047-1.127,3.37-2.266,4.035c0.843,0.497,1.749,1.347,1.749,2.853L65.59,73.507 c-0.038,0.318-0.288,0.57-0.606,0.611l-22.342,2.868C42.612,76.99,42.582,76.992,42.553,76.992z M34.7,69.751l8.038,5.811 l21.526-2.764l2.823-23.494c-0.005-1.09-0.997-1.592-1.927-1.971l-0.596-0.243c-0.284-0.116-0.46-0.403-0.434-0.708 c0.026-0.306,0.248-0.559,0.547-0.624l0.628-0.138C66.229,45.418,67.6,44.42,67.6,42.5c0-1.839-2.121-3.676-3.831-3.141 l-0.661,0.205c-0.294,0.094-0.619-0.022-0.792-0.283c-0.171-0.26-0.149-0.602,0.052-0.839l0.45-0.528 c0.699-0.82,2.826-3.314,2.826-6.467c0-4.495-3.854-9.045-11.22-9.045c-7.481,0-12.023,6.32-12.023,9.1 c0,0.354-0.264,0.652-0.615,0.695l-0.395,0.048c-0.347,0.043-0.679-0.182-0.764-0.525c-0.4-1.6-1.9-3.321-4.249-3.321 c-0.313,0-0.64,0.03-0.974,0.089c-3.525,0.624-4.775,3.108-4.775,5.046c0,1.579,0.975,2.418,3.596,3.096 c0.334,0.086,0.555,0.402,0.521,0.745l-0.038,0.394c-0.033,0.344-0.313,0.612-0.657,0.631c-1.102,0.062-3.662,0.41-3.65,2.296 c0.012,2.015,2.158,2.402,2.25,2.418l0.36,0.061c0.252,0.042,0.461,0.219,0.544,0.461c0.084,0.242,0.029,0.509-0.143,0.699 l-1.811,1.999c-0.059,0.064-0.129,0.118-0.207,0.157l-0.167,0.083c-0.001,0-0.002,0.001-0.003,0.001 c-0.011,0.238-0.013,0.73,0.109,1.51c0.177,1.118,2.119,13.634,2.998,19.292L34.7,69.751z"/><path fill="#472b29" d="M62.703,34.696c-0.04,0-0.081-0.01-0.118-0.03c-0.122-0.065-0.167-0.217-0.102-0.339 c0.516-0.96,0.789-1.893,0.81-2.774c0.003-0.138,0.097-0.247,0.256-0.244c0.138,0.003,0.247,0.118,0.244,0.256 c-0.023,0.96-0.315,1.969-0.87,3C62.878,34.648,62.792,34.696,62.703,34.696z M45.391,29.587c-0.048,0-0.096-0.014-0.139-0.042 c-0.115-0.077-0.146-0.231-0.069-0.347c1.593-2.392,4.856-4.948,9.241-4.948c3.93,0,7.04,1.499,8.535,4.112 c0.068,0.12,0.027,0.272-0.093,0.341c-0.121,0.068-0.273,0.027-0.341-0.093c-1.403-2.453-4.356-3.86-8.102-3.86 c-4.188,0-7.305,2.441-8.825,4.726C45.551,29.548,45.472,29.587,45.391,29.587z"/><path fill="#472b29" d="M64.851,43.821c-0.109,0-0.209-0.071-0.24-0.181c-0.038-0.133,0.039-0.271,0.172-0.309 c0.041-0.014,0.468-0.176,0.468-0.831c0-0.323-0.539-0.887-0.848-0.887c-0.138,0-0.25-0.112-0.25-0.25s0.112-0.25,0.25-0.25 c0.579,0,1.348,0.791,1.348,1.387c0,1.062-0.822,1.309-0.831,1.312C64.896,43.818,64.873,43.821,64.851,43.821z M32.729,33.783 c-0.138,0-0.25-0.112-0.25-0.25c0-1.66,1.214-2.865,3.247-3.225c0.228-0.04,0.447-0.061,0.652-0.061 c1.136,0,1.779,0.643,2.12,1.182c0.073,0.117,0.038,0.271-0.078,0.345c-0.117,0.075-0.271,0.04-0.346-0.078 c-0.272-0.433-0.788-0.949-1.696-0.949c-0.177,0-0.366,0.018-0.564,0.053c-1.775,0.314-2.835,1.335-2.835,2.732 C32.979,33.671,32.866,33.783,32.729,33.783z"/></svg>