<svg width="342" height="192" fill="none" version="1.1" xmlns="http://www.w3.org/2000/svg">
 <g transform="matrix(.684 0 0 .684 -171.02 -155.96)">
  <g transform="matrix(.63308 0 0 .63308 124.23 -15.424)">
   <rect x="198.71" y="384.52" width="789.79" height="443.39" rx="1.9745" fill="#eaeaea" stroke-width=".49313"/>
  </g>
  <g transform="matrix(.89189 0 0 .89189 -70.05 -121.88)">
   <a transform="translate(51.568 -53.942)">
    <g transform="matrix(.73075 0 0 .72041 148.54 170.83)" opacity=".5">
     <g opacity=".5">
      <path d="m600.71 736.5c-75.454 0-136.62-61.167-136.62-136.62 0-75.454 61.167-136.62 136.62-136.62 75.453 0 136.62 61.167 136.62 136.62 0 75.453-61.167 136.62-136.62 136.62z" fill="#fafafa"/>
      <path d="m600.71 736.5c-75.454 0-136.62-61.167-136.62-136.62 0-75.454 61.167-136.62 136.62-136.62 75.453 0 136.62 61.167 136.62 136.62 0 75.453-61.167 136.62-136.62 136.62z" stroke="#c9c9c9" stroke-width="2.418"/>
     </g>
     <g stroke-width="2.418">
      <path transform="matrix(.70711 -.70711 -.70711 -.70711 405.13 795.74)" d="m0-1.209h553.58" stroke="url(#a)"/>
      <path d="m404.85 598.67h391.73" stroke="url(#b)"/>
      <path d="m599.5 795.74v-391.72" stroke="url(#c)"/>
      <path d="m795.72 796.6-391.44-391.44" stroke="url(#d)"/>
     </g>
     <path d="m600.71 656.7c-31.384 0-56.825-25.441-56.825-56.824 0-31.384 25.441-56.825 56.825-56.825 31.383 0 56.824 25.441 56.824 56.825 0 31.383-25.441 56.824-56.824 56.824z" fill="#fff"/>
     <g clip-path="url(#e)">
      <path d="m616.43 586.58h-31.434v16.176l3.553-3.554 0.531-0.531h9.068l8.537-8.537h2.565l7.18 7.181zm-15.715 14.654 3.698 3.699 1.283 1.282-2.565 2.565-1.282-1.283-5.2-5.199h-6.066l-5.587 5.587v2.876a2.418 2.418 0 0 0 2.418 2.418h26.598a2.418 2.418 0 0 0 2.418-2.418v-8.317l-8.463-8.463-7.181 7.181zm-19.347 5.442v4.085a6.045 6.045 0 0 0 6.046 6.045h26.598a6.044 6.044 0 0 0 6.045-6.045v-7.108l1.356-1.355-1.282-1.283-0.074-0.073v-17.989h-38.689v23.43l-0.146 0.146z" clip-rule="evenodd" fill="#666" fill-rule="evenodd"/>
     </g>
     <path d="m600.71 656.7c-31.384 0-56.825-25.441-56.825-56.824 0-31.384 25.441-56.825 56.825-56.825 31.383 0 56.824 25.441 56.824 56.825 0 31.383-25.441 56.824-56.824 56.824z" stroke="#c9c9c9" stroke-width="2.418"/>
    </g>
   </a>
  </g>
 </g>
 <defs>
  <linearGradient id="a" x1="554.06" x2="-.48" y1=".083" y2=".087" gradientUnits="userSpaceOnUse">
   <stop stop-color="#C9C9C9" stop-opacity="0" offset="0"/>
   <stop stop-color="#C9C9C9" offset=".208"/>
   <stop stop-color="#C9C9C9" offset=".792"/>
   <stop stop-color="#C9C9C9" stop-opacity="0" offset="1"/>
  </linearGradient>
  <linearGradient id="b" x1="796.91" x2="404.51" y1="599.96" y2="599.97" gradientUnits="userSpaceOnUse">
   <stop stop-color="#C9C9C9" stop-opacity="0" offset="0"/>
   <stop stop-color="#C9C9C9" offset=".208"/>
   <stop stop-color="#C9C9C9" offset=".792"/>
   <stop stop-color="#C9C9C9" stop-opacity="0" offset="1"/>
  </linearGradient>
  <linearGradient id="c" x1="600.79" x2="600.79" y1="403.68" y2="796.08" gradientUnits="userSpaceOnUse">
   <stop stop-color="#C9C9C9" stop-opacity="0" offset="0"/>
   <stop stop-color="#C9C9C9" offset=".208"/>
   <stop stop-color="#C9C9C9" offset=".792"/>
   <stop stop-color="#C9C9C9" stop-opacity="0" offset="1"/>
  </linearGradient>
  <linearGradient id="d" x1="404.85" x2="796.97" y1="403.9" y2="796.02" gradientUnits="userSpaceOnUse">
   <stop stop-color="#C9C9C9" stop-opacity="0" offset="0"/>
   <stop stop-color="#C9C9C9" offset=".208"/>
   <stop stop-color="#C9C9C9" offset=".792"/>
   <stop stop-color="#C9C9C9" stop-opacity="0" offset="1"/>
  </linearGradient>
  <clipPath id="e">
   <path d="m581.36 580.54h38.689v38.689h-38.689z" fill="#fff"/>
  </clipPath>
 </defs>
</svg>