<svg xmlns="http://www.w3.org/2000/svg" xmlns:xlink="http://www.w3.org/1999/xlink" viewBox="0,0,256,256" width="48px" height="48px" fill-rule="nonzero"><g fill="none" fill-rule="nonzero" stroke="none" stroke-width="1" stroke-linecap="butt" stroke-linejoin="miter" stroke-miterlimit="10" stroke-dasharray="" stroke-dashoffset="0" font-family="none" font-weight="none" font-size="none" text-anchor="none" style="mix-blend-mode: normal"><g transform="scale(5.33333,5.33333)"><path d="M24,9c-13.3,0 -24,6.7 -24,15c0,8.3 10.7,15 24,15c13.3,0 24,-6.7 24,-15c0,-8.2 -10.7,-15 -24,-15z" fill="#000000"></path><path d="M24,11c-11.9,0 -22,5.9 -22,13c0,7 10.1,13 22,13c11.9,0 22,-5.9 22,-13c0,-7.1 -10.1,-13 -22,-13zM41,29.5c-1.3,1.1 -3,2.7 -5,3.5c3.3,-4.8 -3.1,-7.2 -6,-2c-1.1,-4.2 -4.9,-1.3 -6,4c-1.1,-5.3 -4.9,-8.2 -6,-4c-2.9,-5.2 -9.3,-2.8 -6,2c-2,-0.8 -3.7,-2.4 -5,-3.6c-1.8,-1.7 -2.9,-3.7 -3,-5.6c0.1,-4.2 4.9,-8.2 12,-9.8c-5,6.6 3.1,11.3 4.5,5.4l0.6,-5.9l1.4,1.5h1.5h1.5l1.4,-1.5l0.6,5.9c1.4,5.8 9.5,1.2 4.5,-5.4c7.1,1.7 11.9,5.7 12,9.9c-0.1,1.9 -1.2,3.9 -3,5.6z" fill="#ffeb3b"></path></g></g></svg>